<svg width="655" height="157" viewBox="0 0 655 157" fill="none" xmlns="http://www.w3.org/2000/svg">
<mask id="mask0_401_1181" style="mask-type:luminance" maskUnits="userSpaceOnUse" x="0" y="0" width="138" height="157">
<path d="M0 0H138V157H0V0Z" fill="white"/>
</mask>
<g mask="url(#mask0_401_1181)">
<path d="M0 0.00512695H138L126.172 140.703L69 156.5L11.8281 140.703L0 0.00512695Z" fill="#0098FF"/>
</g>
<path d="M13.8022 15.802H124.198L114.74 128.536L69.0002 141.198L23.2606 128.536L13.8022 15.802Z" fill="#76C8FF"/>
<mask id="mask1_401_1181" style="mask-type:luminance" maskUnits="userSpaceOnUse" x="36" y="13" width="34" height="133">
<path d="M36.4272 13.7449H69.146V145.938H36.4272V13.7449Z" fill="white"/>
</mask>
<g mask="url(#mask1_401_1181)">
<path d="M36.4272 13.7449H69.5575V146.266H36.4272V13.7449Z" fill="#0098FF"/>
</g>
<mask id="mask2_401_1181" style="mask-type:luminance" maskUnits="userSpaceOnUse" x="12" y="3" width="42" height="137">
<path d="M12 3.66675H53.3333V139.667H12V3.66675Z" fill="white"/>
</mask>
<g mask="url(#mask2_401_1181)">
<mask id="mask3_401_1181" style="mask-type:luminance" maskUnits="userSpaceOnUse" x="12" y="4" width="42" height="135">
<path d="M12.8335 6.3855L45.9116 4.55737L53.2137 136.88L20.1356 138.708L12.8335 6.3855Z" fill="white"/>
</mask>
<g mask="url(#mask3_401_1181)">
<mask id="mask4_401_1181" style="mask-type:luminance" maskUnits="userSpaceOnUse" x="12" y="4" width="41" height="135">
<path d="M12.8335 6.38558L45.5054 4.5835L52.7866 136.578L20.1147 138.38L12.8335 6.38558Z" fill="white"/>
</mask>
<g mask="url(#mask4_401_1181)">
<path d="M12.8335 6.38574L45.9116 4.55762L53.2137 136.881L20.1356 138.709L12.8335 6.38574Z" fill="#0098FF"/>
</g>
</g>
</g>
<mask id="mask5_401_1181" style="mask-type:luminance" maskUnits="userSpaceOnUse" x="32" y="27" width="74" height="103">
<path d="M32.7554 27.2761H105.755V129.276H32.7554V27.2761Z" fill="white"/>
</mask>
<g mask="url(#mask5_401_1181)">
<path d="M99.9899 91.5677C100.151 78.9948 102.073 52.4219 75.4482 46.375L82.9066 32.9688L69.2607 27.2812L55.6149 32.9688L63.0732 46.375C36.4482 52.4219 38.3753 78.9948 38.5368 91.5677C38.693 104.141 32.7607 105.729 32.7607 105.729C35.6462 121.323 58.4222 129.281 58.4222 129.281C53.7712 107.161 63.4326 89.1823 63.4326 89.1823L51.8857 86.7917L45.4326 72.6302L66.1201 86.7917V97.6146L60.3493 105.411L69.2607 114.604L78.1774 105.411L72.4014 97.6146V86.7917L93.0941 72.6302L86.6357 86.7917L75.0889 89.1823C75.0889 89.1823 84.7503 107.161 80.0993 129.281C80.0993 129.281 102.875 121.323 105.761 105.729C105.761 105.729 99.8285 104.141 99.9899 91.5677Z" fill="#CBCBCB"/>
</g>
<mask id="mask6_401_1181" style="mask-type:luminance" maskUnits="userSpaceOnUse" x="69" y="27" width="37" height="103">
<path d="M69.4009 27.2761H105.401V129.276H69.4009V27.2761Z" fill="white"/>
</mask>
<g mask="url(#mask6_401_1181)">
<path d="M99.9894 91.5677C100.151 78.9948 102.073 52.4219 75.4478 46.375L82.9061 32.9688L69.2603 27.2812L55.6144 32.9688L63.0728 46.375C36.4478 52.4219 38.3748 78.9948 38.5363 91.5677C38.6925 104.141 32.7603 105.729 32.7603 105.729C35.6457 121.323 58.4217 129.281 58.4217 129.281C53.7707 107.161 63.4321 89.1823 63.4321 89.1823L51.8853 86.7917L45.4321 72.6302L66.1196 86.7917V97.6146L60.3488 105.411L69.2603 114.604L78.1769 105.411L72.4009 97.6146V86.7917L93.0936 72.6302L86.6353 86.7917L75.0884 89.1823C75.0884 89.1823 84.7498 107.161 80.0988 129.281C80.0988 129.281 102.875 121.323 105.76 105.729C105.76 105.729 99.828 104.141 99.9894 91.5677Z" fill="white"/>
</g>
<path d="M192.667 36.7332C201.917 36.7332 208.802 39.1811 213.333 44.0665C217.859 48.9571 220.125 55.2696 220.125 63.004V77.004H195.604V58.3373C195.604 56.4779 195.292 55.0821 194.667 54.1498C194.042 53.2071 192.885 52.7332 191.208 52.7332C189.776 52.7332 188.792 53.3582 188.25 54.6082C187.719 55.8582 187.458 57.1915 187.458 58.6082V114.066C187.458 115.499 187.719 116.837 188.25 118.087C188.792 119.327 189.776 119.941 191.208 119.941C192.885 119.941 194.042 119.41 194.667 118.337C195.292 117.27 195.604 115.624 195.604 113.4V92.879H220.125V109.15C220.125 114.04 219.104 118.525 217.063 122.608C215.021 126.691 211.885 129.936 207.667 132.337C203.443 134.738 198.26 135.941 192.125 135.941C182.625 135.941 175.38 133.681 170.396 129.15C165.422 124.608 162.938 117.275 162.938 107.15V65.5457C162.938 56.1186 165.464 48.9571 170.521 44.0665C175.589 39.1811 182.969 36.7332 192.667 36.7332Z" fill="#0098FF"/>
<path d="M250.398 36.7332C268.439 36.7332 277.46 43.5404 277.46 57.1498V66.6082H255.46V58.3373C255.46 54.0769 253.861 51.9415 250.668 51.9415C247.903 51.9415 246.523 53.8998 246.523 57.8165V62.6082C246.523 64.3894 247.148 66.0561 248.398 67.6082C249.648 69.1654 250.981 70.4363 252.398 71.4207C253.814 72.3946 256.075 73.8113 259.189 75.6707C263.023 77.9936 266.293 80.2644 269.002 82.4832C271.71 84.7071 274.064 87.5769 276.064 91.0873C278.064 94.5873 279.064 98.7436 279.064 103.546V112.066C279.064 121.056 276.507 127.285 271.398 130.754C266.283 134.212 259.283 135.941 250.398 135.941C240.616 135.941 233.731 133.988 229.731 130.087C225.731 126.171 223.731 120.124 223.731 111.941V99.2748H246.668V115.004C246.668 118.827 248.043 120.733 250.793 120.733C252.304 120.733 253.439 120.139 254.189 118.941C254.95 117.749 255.335 115.728 255.335 112.879V107.816C255.335 105.415 254.689 103.285 253.398 101.421C252.106 99.5457 250.679 98.0352 249.127 96.879C247.569 95.7279 245.366 94.2644 242.523 92.4832C238.7 90.1654 235.523 87.9832 232.981 85.9415C230.45 83.8998 228.257 81.2332 226.398 77.9415C224.533 74.6498 223.606 70.7436 223.606 66.2123V59.8165C223.606 44.4311 232.533 36.7332 250.398 36.7332Z" fill="#0098FF"/>
<path d="M309.595 36.7332C327.637 36.7332 336.658 43.5404 336.658 57.1498V66.6082H314.658V58.3373C314.658 54.0769 313.059 51.9415 309.866 51.9415C307.101 51.9415 305.72 53.8998 305.72 57.8165V62.6082C305.72 64.3894 306.345 66.0561 307.595 67.6082C308.845 69.1654 310.179 70.4363 311.595 71.4207C313.012 72.3946 315.272 73.8113 318.387 75.6707C322.22 77.9936 325.491 80.2644 328.2 82.4832C330.908 84.7071 333.262 87.5769 335.262 91.0873C337.262 94.5873 338.262 98.7436 338.262 103.546V112.066C338.262 121.056 335.705 127.285 330.595 130.754C325.481 134.212 318.481 135.941 309.595 135.941C299.814 135.941 292.929 133.988 288.929 130.087C284.929 126.171 282.929 120.124 282.929 111.941V99.2748H305.866V115.004C305.866 118.827 307.241 120.733 309.991 120.733C311.502 120.733 312.637 120.139 313.387 118.941C314.147 117.749 314.533 115.728 314.533 112.879V107.816C314.533 105.415 313.887 103.285 312.595 101.421C311.304 99.5457 309.877 98.0352 308.325 96.879C306.767 95.7279 304.564 94.2644 301.72 92.4832C297.897 90.1654 294.72 87.9832 292.179 85.9415C289.647 83.8998 287.455 81.2332 285.595 77.9415C283.731 74.6498 282.804 70.7436 282.804 66.2123V59.8165C282.804 44.4311 291.731 36.7332 309.595 36.7332Z" fill="#0098FF"/>
<path d="M430.125 55.8165V67.2748C430.125 72.3477 428.719 75.8998 425.917 77.9415C423.125 79.9832 419.193 81.0561 414.125 81.1498L413.854 81.3998C419.813 81.7644 424.276 83.5873 427.25 86.879C430.234 90.1707 431.729 94.3061 431.729 99.2748V113.546C431.729 120.561 429.792 125.712 425.917 129.004C422.052 132.296 416.385 133.941 408.917 133.941H375.062V38.7332H410.396C417.063 38.7332 422.01 40.1186 425.25 42.879C428.5 45.629 430.125 49.9415 430.125 55.8165ZM401.583 75.8165C403.458 75.8165 404.859 75.2436 405.792 74.0873C406.719 72.9207 407.188 71.629 407.188 70.2123V59.5457C407.188 58.2957 406.74 57.0561 405.854 55.8165C404.964 54.5665 403.458 53.9415 401.333 53.9415H398.792V75.8165H401.583ZM407.188 112.212V95.9415C407.188 94.0821 406.672 92.6654 405.646 91.6915C404.63 90.7071 403.193 90.2123 401.333 90.2123H398.792V117.941C399.151 118.025 399.635 118.066 400.25 118.066C402.385 118.066 404.073 117.624 405.313 116.733C406.563 115.848 407.188 114.337 407.188 112.212Z" fill="#0098FF"/>
<path d="M462.918 53.8164C471.46 53.8164 478.127 55.4414 482.918 58.6914C487.721 61.931 490.127 67.8112 490.127 76.3372V133.941H467.189V129.546C464.965 131.77 462.543 133.389 459.918 134.4C457.293 135.426 454.736 135.941 452.252 135.941C447.096 135.941 443.231 134.363 440.648 131.212C438.075 128.061 436.793 124.212 436.793 119.671V107.671C436.793 104.66 437.096 102.306 437.71 100.608C438.335 98.9154 439.668 97.3581 441.71 95.9414C443.762 94.5247 447.012 93.0143 451.46 91.3997C455.903 89.7227 459.168 88.3477 461.252 87.2747C463.346 86.207 464.731 85.207 465.398 84.2747C466.064 83.3477 466.398 82.1654 466.398 80.7331V70.2122C466.398 69.2279 466.064 68.2487 465.398 67.2747C464.731 66.306 463.731 65.8164 462.398 65.8164C461.231 65.8164 460.335 66.2227 459.71 67.0247C459.096 67.8164 458.793 68.8789 458.793 70.2122V85.9414H436.793V77.0039C436.793 68.4779 439.033 62.4831 443.523 59.0247C448.007 55.556 454.471 53.8164 462.918 53.8164ZM458.793 108.337V117.004C458.793 117.993 459.075 118.931 459.648 119.816C460.231 120.707 461.096 121.15 462.252 121.15C463.585 121.15 464.606 120.707 465.314 119.816C466.033 118.931 466.398 118.082 466.398 117.275V96.7331C464.257 98.0664 462.45 99.6497 460.981 101.483C459.523 103.306 458.793 105.587 458.793 108.337Z" fill="#0098FF"/>
<path d="M523.179 43.8164V55.8164H529.45V68.6081H523.179V118.212C523.179 120.171 524.064 121.15 525.846 121.15H529.45V133.941H515.721C510.913 133.941 507.268 133.275 504.783 131.941C502.294 130.608 500.648 128.723 499.846 126.275C499.054 123.832 498.658 120.566 498.658 116.483V68.6081H493.721V55.8164H498.658V43.8164H523.179Z" fill="#0098FF"/>
<path d="M560.244 43.8164V55.8164H566.515V68.6081H560.244V118.212C560.244 120.171 561.129 121.15 562.911 121.15H566.515V133.941H552.786C547.978 133.941 544.333 133.275 541.848 131.941C539.359 130.608 537.713 128.723 536.911 126.275C536.119 123.832 535.723 120.566 535.723 116.483V68.6081H530.786V55.8164H535.723V43.8164H560.244Z" fill="#0098FF"/>
<path d="M593.851 133.941H570.122V38.7332H593.851V133.941Z" fill="#0098FF"/>
<path d="M627.721 53.8164C632.606 53.8164 637.054 54.8164 641.054 56.8164C645.054 58.8164 648.226 61.7279 650.575 65.5456C652.934 69.3685 654.117 73.8997 654.117 79.1497V96.0664H623.45V116.879C623.45 119.993 624.648 121.546 627.054 121.546C629.804 121.546 631.179 119.811 631.179 116.337V102.066H654.117V110.608C654.117 118.249 651.872 124.379 647.387 129.004C642.898 133.629 636.346 135.941 627.721 135.941C618.648 135.941 611.71 133.66 606.908 129.087C602.117 124.504 599.721 118.348 599.721 110.608V79.1497C599.721 71.3164 602.163 65.1393 607.054 60.6081C611.939 56.082 618.83 53.8164 627.721 53.8164ZM623.45 72.8789V83.2747H631.179V73.3997C631.179 69.9414 629.804 68.2122 627.054 68.2122C624.648 68.2122 623.45 69.7695 623.45 72.8789Z" fill="#0098FF"/>
</svg>
