<svg width="655" height="158" viewBox="0 0 655 158" fill="none" xmlns="http://www.w3.org/2000/svg">
<path d="M192.667 41.4584C201.917 41.4584 208.802 43.9063 213.333 48.7917C217.859 53.6823 220.125 59.9948 220.125 67.7292V81.7292H195.604V63.0625C195.604 61.2032 195.292 59.8073 194.667 58.875C194.042 57.9323 192.885 57.4584 191.208 57.4584C189.776 57.4584 188.792 58.0834 188.25 59.3334C187.719 60.5834 187.458 61.9167 187.458 63.3334V118.792C187.458 120.224 187.719 121.563 188.25 122.813C188.792 124.052 189.776 124.667 191.208 124.667C192.885 124.667 194.042 124.135 194.667 123.063C195.292 121.995 195.604 120.349 195.604 118.125V97.6042H220.125V113.875C220.125 118.766 219.104 123.25 217.063 127.333C215.021 131.417 211.885 134.662 207.667 137.063C203.443 139.464 198.26 140.667 192.125 140.667C182.625 140.667 175.38 138.406 170.396 133.875C165.422 129.333 162.938 122 162.938 111.875V70.2709C162.938 60.8438 165.464 53.6823 170.521 48.7917C175.589 43.9063 182.969 41.4584 192.667 41.4584Z" fill="#0098FF"/>
<path d="M250.398 41.4584C268.439 41.4584 277.46 48.2657 277.46 61.875V71.3334H255.46V63.0625C255.46 58.8021 253.861 56.6667 250.668 56.6667C247.903 56.6667 246.523 58.625 246.523 62.5417V67.3334C246.523 69.1146 247.148 70.7813 248.398 72.3334C249.648 73.8907 250.981 75.1615 252.398 76.1459C253.814 77.1198 256.075 78.5365 259.189 80.3959C263.023 82.7188 266.293 84.9896 269.002 87.2084C271.71 89.4323 274.064 92.3021 276.064 95.8125C278.064 99.3125 279.064 103.469 279.064 108.271V116.792C279.064 125.781 276.507 132.01 271.398 135.479C266.283 138.938 259.283 140.667 250.398 140.667C240.616 140.667 233.731 138.714 229.731 134.813C225.731 130.896 223.731 124.849 223.731 116.667V104H246.668V119.729C246.668 123.552 248.043 125.458 250.793 125.458C252.304 125.458 253.439 124.865 254.189 123.667C254.95 122.474 255.335 120.453 255.335 117.604V112.542C255.335 110.141 254.689 108.01 253.398 106.146C252.106 104.271 250.679 102.76 249.127 101.604C247.569 100.453 245.366 98.9896 242.523 97.2084C238.7 94.8907 235.523 92.7084 232.981 90.6667C230.45 88.625 228.257 85.9584 226.398 82.6667C224.533 79.375 223.606 75.4688 223.606 70.9375V64.5417C223.606 49.1563 232.533 41.4584 250.398 41.4584Z" fill="#0098FF"/>
<path d="M309.595 41.4584C327.637 41.4584 336.658 48.2657 336.658 61.875V71.3334H314.658V63.0625C314.658 58.8021 313.059 56.6667 309.866 56.6667C307.101 56.6667 305.72 58.625 305.72 62.5417V67.3334C305.72 69.1146 306.345 70.7813 307.595 72.3334C308.845 73.8907 310.179 75.1615 311.595 76.1459C313.012 77.1198 315.272 78.5365 318.387 80.3959C322.22 82.7188 325.491 84.9896 328.2 87.2084C330.908 89.4323 333.262 92.3021 335.262 95.8125C337.262 99.3125 338.262 103.469 338.262 108.271V116.792C338.262 125.781 335.705 132.01 330.595 135.479C325.481 138.938 318.481 140.667 309.595 140.667C299.814 140.667 292.929 138.714 288.929 134.813C284.929 130.896 282.929 124.849 282.929 116.667V104H305.866V119.729C305.866 123.552 307.241 125.458 309.991 125.458C311.502 125.458 312.637 124.865 313.387 123.667C314.147 122.474 314.533 120.453 314.533 117.604V112.542C314.533 110.141 313.887 108.01 312.595 106.146C311.304 104.271 309.877 102.76 308.325 101.604C306.767 100.453 304.564 98.9896 301.72 97.2084C297.897 94.8907 294.72 92.7084 292.179 90.6667C289.647 88.625 287.455 85.9584 285.595 82.6667C283.731 79.375 282.804 75.4688 282.804 70.9375V64.5417C282.804 49.1563 291.731 41.4584 309.595 41.4584Z" fill="#0098FF"/>
<path d="M430.125 60.5417V72C430.125 77.073 428.719 80.625 425.917 82.6667C423.125 84.7084 419.193 85.7813 414.125 85.875L413.854 86.125C419.813 86.4896 424.276 88.3125 427.25 91.6042C430.234 94.8959 431.729 99.0313 431.729 104V118.271C431.729 125.287 429.792 130.438 425.917 133.729C422.052 137.021 416.385 138.667 408.917 138.667H375.062V43.4584H410.396C417.063 43.4584 422.01 44.8438 425.25 47.6042C428.5 50.3542 430.125 54.6667 430.125 60.5417ZM401.583 80.5417C403.458 80.5417 404.859 79.9688 405.792 78.8125C406.719 77.6459 407.188 76.3542 407.188 74.9375V64.2709C407.188 63.0209 406.74 61.7813 405.854 60.5417C404.964 59.2917 403.458 58.6667 401.333 58.6667H398.792V80.5417H401.583ZM407.188 116.938V100.667C407.188 98.8073 406.672 97.3907 405.646 96.4167C404.63 95.4323 403.193 94.9375 401.333 94.9375H398.792V122.667C399.151 122.75 399.635 122.792 400.25 122.792C402.385 122.792 404.073 122.349 405.313 121.458C406.563 120.573 407.188 119.063 407.188 116.938Z" fill="#0098FF"/>
<path d="M462.918 58.5417C471.46 58.5417 478.127 60.1667 482.918 63.4167C487.721 66.6563 490.127 72.5365 490.127 81.0626V138.667H467.189V134.271C464.965 136.495 462.543 138.115 459.918 139.125C457.293 140.151 454.736 140.667 452.252 140.667C447.096 140.667 443.231 139.089 440.648 135.938C438.075 132.787 436.793 128.938 436.793 124.396V112.396C436.793 109.385 437.096 107.031 437.71 105.333C438.335 103.641 439.668 102.083 441.71 100.667C443.762 99.2501 447.012 97.7397 451.46 96.1251C455.903 94.448 459.168 93.073 461.252 92.0001C463.346 90.9324 464.731 89.9324 465.398 89.0001C466.064 88.073 466.398 86.8907 466.398 85.4584V74.9376C466.398 73.9532 466.064 72.974 465.398 72.0001C464.731 71.0313 463.731 70.5417 462.398 70.5417C461.231 70.5417 460.335 70.948 459.71 71.7501C459.096 72.5417 458.793 73.6042 458.793 74.9376V90.6667H436.793V81.7292C436.793 73.2032 439.033 67.2084 443.523 63.7501C448.007 60.2813 454.471 58.5417 462.918 58.5417ZM458.793 113.063V121.729C458.793 122.719 459.075 123.656 459.648 124.542C460.231 125.432 461.096 125.875 462.252 125.875C463.585 125.875 464.606 125.432 465.314 124.542C466.033 123.656 466.398 122.807 466.398 122V101.458C464.257 102.792 462.45 104.375 460.981 106.208C459.523 108.031 458.793 110.313 458.793 113.063Z" fill="#0098FF"/>
<path d="M523.179 48.5417V60.5417H529.45V73.3334H523.179V122.938C523.179 124.896 524.064 125.875 525.846 125.875H529.45V138.667H515.721C510.913 138.667 507.268 138 504.783 136.667C502.294 135.333 500.648 133.448 499.846 131C499.054 128.557 498.658 125.292 498.658 121.208V73.3334H493.721V60.5417H498.658V48.5417H523.179Z" fill="#0098FF"/>
<path d="M560.244 48.5417V60.5417H566.515V73.3334H560.244V122.938C560.244 124.896 561.129 125.875 562.911 125.875H566.515V138.667H552.786C547.978 138.667 544.333 138 541.848 136.667C539.359 135.333 537.713 133.448 536.911 131C536.119 128.557 535.723 125.292 535.723 121.208V73.3334H530.786V60.5417H535.723V48.5417H560.244Z" fill="#0098FF"/>
<path d="M593.851 138.667H570.122V43.4584H593.851V138.667Z" fill="#0098FF"/>
<path d="M627.721 58.5417C632.606 58.5417 637.054 59.5417 641.054 61.5417C645.054 63.5417 648.226 66.4532 650.575 70.2709C652.934 74.0938 654.117 78.6251 654.117 83.8751V100.792H623.45V121.604C623.45 124.719 624.648 126.271 627.054 126.271C629.804 126.271 631.179 124.537 631.179 121.063V106.792H654.117V115.333C654.117 122.974 651.872 129.104 647.387 133.729C642.898 138.354 636.346 140.667 627.721 140.667C618.648 140.667 611.71 138.385 606.908 133.813C602.117 129.229 599.721 123.073 599.721 115.333V83.8751C599.721 76.0417 602.163 69.8647 607.054 65.3334C611.939 60.8074 618.83 58.5417 627.721 58.5417ZM623.45 77.6042V88.0001H631.179V78.1251C631.179 74.6667 629.804 72.9376 627.054 72.9376C624.648 72.9376 623.45 74.4949 623.45 77.6042Z" fill="#0098FF"/>
<mask id="mask0_400_976" style="mask-type:luminance" maskUnits="userSpaceOnUse" x="0" y="0" width="139" height="158">
<path d="M0 0H138.484V157.333H0V0Z" fill="white"/>
</mask>
<g mask="url(#mask0_400_976)">
<path d="M0 0.00524902H138.484L126.615 141.162L69.2396 157.01L11.8698 141.162L0 0.00524902Z" fill="#0098FF"/>
</g>
<path d="M13.8491 15.8541H124.636L115.141 128.958L69.2397 141.656L23.3439 128.958L13.8491 15.8541Z" fill="#1FA4FF"/>
<mask id="mask1_400_976" style="mask-type:luminance" maskUnits="userSpaceOnUse" x="36" y="13" width="34" height="133">
<path d="M36.4272 13.7448H69.146V145.937H36.4272V13.7448Z" fill="white"/>
</mask>
<g mask="url(#mask1_400_976)">
<path d="M36.4272 13.7448H69.5575V146.266H36.4272V13.7448Z" fill="#0098FF"/>
</g>
<mask id="mask2_400_976" style="mask-type:luminance" maskUnits="userSpaceOnUse" x="12" y="4" width="42" height="135">
<path d="M12 4H53.3333V138.667H12V4Z" fill="white"/>
</mask>
<g mask="url(#mask2_400_976)">
<mask id="mask3_400_976" style="mask-type:luminance" maskUnits="userSpaceOnUse" x="12" y="4" width="42" height="135">
<path d="M12.8335 6.38538L45.9116 4.55725L53.2137 136.88L20.1356 138.708L12.8335 6.38538Z" fill="white"/>
</mask>
<g mask="url(#mask3_400_976)">
<mask id="mask4_400_976" style="mask-type:luminance" maskUnits="userSpaceOnUse" x="12" y="4" width="41" height="135">
<path d="M12.8335 6.38534L45.5054 4.58325L52.7866 136.578L20.1147 138.38L12.8335 6.38534Z" fill="white"/>
</mask>
<g mask="url(#mask4_400_976)">
<path d="M12.8335 6.38525L45.9116 4.55713L53.2137 136.88L20.1356 138.708L12.8335 6.38525Z" fill="#0098FF"/>
</g>
</g>
</g>
<path d="M33.1304 110.141C32.6043 110.667 32.6043 111.458 33.1304 111.984C33.6564 112.51 34.4481 112.51 34.9741 111.984C35.5002 111.458 35.5002 110.667 34.9741 110.141C34.4481 109.615 33.5939 109.615 33.1304 110.141Z" fill="#CBCBCB"/>
<path d="M95.3071 51.3906C95.8332 50.8594 95.8332 50.0729 95.3071 49.5469C94.7811 49.0156 93.9894 49.0156 93.4634 49.5469C92.9373 50.0729 92.9373 50.8594 93.4634 51.3906C93.9894 51.9167 94.7811 51.9167 95.3071 51.3906Z" fill="#CBCBCB"/>
<path d="M62.5731 41.6406V47.8333C62.5731 48.5573 63.1668 49.151 63.8908 49.151C64.6147 49.151 65.2085 48.5573 65.2085 47.8333V39.7969C66.1304 39.0729 66.9845 38.2813 67.8439 37.4271V42.5625C67.8439 43.2865 68.4325 43.8802 69.1616 43.8802C69.8856 43.8802 70.4741 43.2865 70.4741 42.5625V37.4271C71.3335 38.2813 72.1877 39.0729 73.1095 39.7969V47.8333C73.1095 48.5573 73.7033 49.151 74.4272 49.151C75.1512 49.151 75.745 48.5573 75.745 47.8333V41.5729C78.5106 43.2865 81.672 44.5365 84.9689 45.1979L87.1408 42.8906C81.6095 42.1042 75.8752 39.7292 71.1356 34.3281C70.672 33.7344 69.8856 33.3438 69.1616 33.3438C68.37 33.3438 67.5783 33.8021 67.1147 34.3281C62.4429 39.6667 56.8439 42.1042 51.4429 42.8906L53.6147 45.1979C56.8439 44.474 59.87 43.2865 62.5731 41.6406Z" fill="#CBCBCB"/>
<path d="M38.797 77.3386C36.6877 70.6875 35.2397 63.4427 34.4481 55.6042L31.8804 53.099C31.7502 52.9688 31.6147 52.8386 31.5522 52.7084C32.4064 63.5052 34.3804 72.599 37.0158 80.2344C37.4116 79.1823 38.0054 78.1927 38.797 77.3386Z" fill="#CBCBCB"/>
<path d="M96.6873 91.1042L96.5571 91.2345L96.6248 91.3022C96.6248 91.2345 96.6248 91.172 96.6873 91.1042Z" fill="#CBCBCB"/>
<path d="M99.521 77.0729L99.6564 77.2083C100.443 77.9323 100.969 78.8541 101.365 79.8437C103.87 72.401 105.781 63.5729 106.636 53.1666L103.74 55.9323C102.948 63.5729 101.563 70.6198 99.521 77.0729Z" fill="#CBCBCB"/>
<mask id="mask5_400_976" style="mask-type:luminance" maskUnits="userSpaceOnUse" x="50" y="102" width="38" height="16">
<path d="M50.6665 102.667H87.9998V117.745H50.6665V102.667Z" fill="white"/>
</mask>
<g mask="url(#mask5_400_976)">
<path d="M70.9373 114.682C70.6717 114.818 70.0155 115.016 69.1613 115.016C68.3019 115.016 67.6457 114.88 67.38 114.682C64.2863 113.104 59.0155 109.875 53.5467 103.88L51.5728 105.594C57.3696 111.984 62.9686 115.406 66.2603 117.057C67.0519 117.448 68.104 117.646 69.2238 117.646C70.3436 117.646 71.3957 117.448 72.1873 117.057C75.5467 115.406 81.2134 111.917 87.0103 105.464L85.0311 103.75C79.3696 109.875 74.0311 113.167 70.9373 114.682Z" fill="#CBCBCB"/>
</g>
<path d="M103.604 110.141C103.078 110.667 103.078 111.458 103.604 111.984C104.13 112.51 104.922 112.51 105.448 111.984C105.979 111.458 105.979 110.667 105.448 110.141C104.989 109.615 104.13 109.615 103.604 110.141Z" fill="#CBCBCB"/>
<path d="M43.2759 49.5469C42.7498 50.0729 42.7498 50.8594 43.2759 51.3906C43.8019 51.9167 44.5936 51.9167 45.1196 51.3906C45.6457 50.8594 45.6457 50.0729 45.1196 49.5469C44.5936 49.0156 43.8019 49.0156 43.2759 49.5469Z" fill="#CBCBCB"/>
<mask id="mask6_400_976" style="mask-type:luminance" maskUnits="userSpaceOnUse" x="27" y="33" width="85" height="85">
<path d="M27.0054 33.3334H111.573V117.745H27.0054V33.3334Z" fill="white"/>
</mask>
<g mask="url(#mask6_400_976)">
<path d="M109.531 106.385C108.219 105.068 106.505 104.412 104.661 104.474L92.9375 91.1042L97.875 86.099C98.7969 85.1771 99.3229 83.9271 99.3229 82.5417C99.3229 81.224 98.7969 79.974 97.8073 79.0521L94.5156 75.823C93.9896 75.2969 93.1979 75.2969 92.6719 75.823L85.9531 82.7396L44.9219 39.9271C44.7917 39.7969 44.6563 39.6667 44.4584 39.599L28.9167 33.474C28.4531 33.2761 27.8646 33.3438 27.5313 33.7344C27.1354 34.1303 27.0052 34.6615 27.2031 35.1876L33.3959 50.7969C33.4584 50.9948 33.5938 51.1251 33.724 51.2553L76.4063 92.4219L70.8698 98.0209C70.6094 98.2813 70.474 98.6146 70.474 98.9428C70.474 99.2709 70.6094 99.599 70.8698 99.8646L74.099 103.094C75.0209 104.016 76.2709 104.542 77.5886 104.542C78.9063 104.542 80.224 104.016 81.1459 103.094L84.375 99.8646L98.4011 112.182C98.599 113.563 99.2604 114.818 100.245 115.802C101.5 117.057 103.146 117.714 104.859 117.714C106.635 117.714 108.281 117.057 109.531 115.802C110.786 114.552 111.443 112.906 111.443 111.125C111.443 109.281 110.786 107.635 109.531 106.385ZM35.6979 49.4792L30.7604 36.9636L43.2084 41.9063L84.1094 84.5834L82.0677 86.6251L51.0469 55.474C50.5209 54.9428 49.7292 54.9428 49.2031 55.474C48.6771 56.0001 48.6771 56.7917 49.2031 57.3178L80.224 88.4688L78.25 90.5105L35.6979 49.4792ZM79.3021 101.115C78.3802 102.037 76.8646 102.037 75.9427 101.115L73.6354 98.8751L93.6615 78.6563L95.9636 80.9636C96.4271 81.4219 96.6875 82.0157 96.6875 82.6094C96.6875 83.2032 96.4271 83.7917 96.0313 84.2553L79.3021 101.115ZM107.688 113.828C106.964 114.552 105.979 115.016 104.922 115.016C103.87 115.016 102.88 114.62 102.156 113.896C101.5 113.234 101.104 112.313 101.036 111.391L100.969 110.865L86.2188 97.8907L91.0261 93.0157L103.542 107.307L104.266 107.177C105.516 106.979 106.766 107.375 107.625 108.297C108.349 109.021 108.807 110.005 108.807 111.063C108.807 112.115 108.411 113.104 107.688 113.828Z" fill="#CBCBCB"/>
</g>
<mask id="mask7_400_976" style="mask-type:luminance" maskUnits="userSpaceOnUse" x="27" y="74" width="43" height="44">
<path d="M27.0054 74.6667H69.3335V117.745H27.0054V74.6667Z" fill="white"/>
</mask>
<g mask="url(#mask7_400_976)">
<path d="M57.4378 103.026C58.3597 103.948 59.6097 104.474 60.9899 104.474C62.3076 104.474 63.5628 103.948 64.4847 103.026L67.7087 99.7969C67.9743 99.5365 68.1045 99.2083 68.1045 98.875C68.1045 98.5469 67.9743 98.2187 67.7087 97.9531L62.1774 92.3542L67.3805 87.349L65.4691 85.5052L60.3337 90.4479L58.3597 88.4063L63.3649 83.3958L61.4535 81.5521L56.516 86.5573L54.4691 84.5156L59.2816 79.5104L57.4378 77.7344L52.6253 82.7396L45.8441 75.8906C45.318 75.3646 44.5264 75.3646 44.0003 75.8906L40.7035 79.1198C39.7816 80.0417 39.193 81.2917 39.193 82.6094C39.193 83.9271 39.7191 85.1771 40.641 86.1667L45.5785 91.1719L33.9222 104.474C32.0785 104.411 30.3649 105.068 29.0472 106.385C27.7972 107.635 27.1357 109.281 27.1357 111.063C27.1357 112.839 27.7972 114.484 29.0472 115.74C30.2972 116.99 31.9482 117.646 33.7243 117.646C35.5003 117.646 37.0837 116.99 38.3337 115.74C39.3232 114.75 39.9795 113.5 40.1774 112.115L54.2087 99.7969L57.4378 103.026ZM41.891 82.6094C41.891 82.0156 42.1566 81.4219 42.6149 80.9635L44.9222 78.6562L64.943 98.875L62.641 101.115C61.7191 101.974 60.2035 101.974 59.2816 101.115L42.5524 84.2552C42.1566 83.7917 41.891 83.2656 41.891 82.6094ZM37.6774 110.797C37.6097 111.984 37.3493 113.036 36.4899 113.828C35.766 114.552 34.7764 114.948 33.7243 114.948C32.6722 114.948 31.6826 114.552 30.9587 113.76C30.167 113.104 29.7712 112.115 29.7712 111.063C29.7712 110.005 30.167 109.021 30.9587 108.297C31.6826 107.573 32.6722 107.177 33.7243 107.177C33.9222 107.177 34.1201 107.177 34.318 107.24L35.042 107.375L47.5576 93.0781L52.3649 97.9531L37.6774 110.797Z" fill="#CBCBCB"/>
</g>
<path d="M70.474 47.8333C70.474 48.1979 70.349 48.5052 70.0885 48.7656C69.8333 49.0208 69.5208 49.151 69.1615 49.151C68.7969 49.151 68.4844 49.0208 68.2292 48.7656C67.9687 48.5052 67.8438 48.1979 67.8438 47.8333C67.8438 47.4687 67.9687 47.1563 68.2292 46.901C68.4844 46.6406 68.7969 46.5156 69.1615 46.5156C69.5208 46.5156 69.8333 46.6406 70.0885 46.901C70.349 47.1563 70.474 47.4687 70.474 47.8333Z" fill="#CBCBCB"/>
<mask id="mask8_400_976" style="mask-type:luminance" maskUnits="userSpaceOnUse" x="70" y="33" width="42" height="42">
<path d="M70.6665 33.1771H111.573V74.6667H70.6665V33.1771Z" fill="white"/>
</mask>
<g mask="url(#mask8_400_976)">
<path d="M72.9113 65.3542L95.3748 41.9063L107.755 36.9636L102.818 49.4792L79.4321 72.1354L81.2759 74.0469L104.859 51.1927C104.989 51.0573 105.12 50.9271 105.187 50.7292L111.38 35.1198C111.573 34.6615 111.443 34.0677 111.114 33.6719C110.719 33.2761 110.193 33.2084 109.729 33.4063L94.255 39.5313C94.0571 39.599 93.9217 39.7292 93.7915 39.8646L71.1353 63.4427L72.9113 65.3542Z" fill="#CBCBCB"/>
</g>
<path d="M89.3804 55.474C88.8543 54.9427 88.0627 54.9427 87.5366 55.474L75.2866 67.7865L77.1304 69.698L89.4429 57.3177C89.9064 56.7917 89.9064 56 89.3804 55.474Z" fill="#CBCBCB"/>
<path d="M95.3071 51.3906C95.8332 50.8594 95.8332 50.0729 95.3071 49.5469C94.7811 49.0156 93.9894 49.0156 93.4634 49.5469C92.9373 50.0729 92.9373 50.8594 93.4634 51.3906C93.9894 51.9167 94.7811 51.9167 95.3071 51.3906Z" fill="white"/>
<mask id="mask9_400_976" style="mask-type:luminance" maskUnits="userSpaceOnUse" x="69" y="33" width="19" height="17">
<path d="M69.1929 33.3334H88.0002V49.3334H69.1929V33.3334Z" fill="white"/>
</mask>
<g mask="url(#mask9_400_976)">
<path d="M62.5731 41.6406V47.8333C62.5731 48.5573 63.1668 49.151 63.8908 49.151C64.6147 49.151 65.2085 48.5573 65.2085 47.8333V39.7969C66.1304 39.0729 66.9845 38.2813 67.8439 37.4271V42.5625C67.8439 43.2865 68.4325 43.8802 69.1616 43.8802C69.8856 43.8802 70.4741 43.2865 70.4741 42.5625V37.4271C71.3335 38.2813 72.1877 39.0729 73.1095 39.7969V47.8333C73.1095 48.5573 73.7033 49.151 74.4272 49.151C75.1512 49.151 75.745 48.5573 75.745 47.8333V41.5729C78.5106 43.2865 81.672 44.5365 84.9689 45.1979L87.1408 42.8906C81.6095 42.1042 75.8752 39.7292 71.1356 34.3281C70.672 33.7344 69.8856 33.3438 69.1616 33.3438C68.37 33.3438 67.5783 33.8021 67.1147 34.3281C62.4429 39.6667 56.8439 42.1042 51.4429 42.8906L53.6147 45.1979C56.8439 44.474 59.87 43.2865 62.5731 41.6406Z" fill="white"/>
</g>
<path d="M96.6873 91.1042L96.5571 91.2345L96.6248 91.3022C96.6248 91.2345 96.6248 91.172 96.6873 91.1042Z" fill="white"/>
<path d="M99.521 77.0729L99.6564 77.2083C100.443 77.9323 100.969 78.8541 101.365 79.8437C103.87 72.401 105.781 63.5729 106.636 53.1666L103.74 55.9323C102.948 63.5729 101.563 70.6198 99.521 77.0729Z" fill="white"/>
<mask id="mask10_400_976" style="mask-type:luminance" maskUnits="userSpaceOnUse" x="69" y="102" width="19" height="16">
<path d="M69.1929 102.667H88.0002V117.745H69.1929V102.667Z" fill="white"/>
</mask>
<g mask="url(#mask10_400_976)">
<path d="M70.9378 114.682C70.6722 114.818 70.016 115.016 69.1618 115.016C68.3024 115.016 67.6462 114.88 67.3805 114.682C64.2868 113.104 59.016 109.875 53.5472 103.88L51.5732 105.594C57.3701 111.984 62.9691 115.406 66.2607 117.057C67.0524 117.448 68.1045 117.646 69.2243 117.646C70.3441 117.646 71.3962 117.448 72.1878 117.057C75.5472 115.406 81.2139 111.917 87.0107 105.464L85.0316 103.75C79.3701 109.875 74.0316 113.167 70.9378 114.682Z" fill="white"/>
</g>
<path d="M103.604 110.141C103.078 110.667 103.078 111.458 103.604 111.984C104.13 112.51 104.922 112.51 105.448 111.984C105.979 111.458 105.979 110.667 105.448 110.141C104.989 109.615 104.13 109.615 103.604 110.141Z" fill="white"/>
<mask id="mask11_400_976" style="mask-type:luminance" maskUnits="userSpaceOnUse" x="69" y="33" width="43" height="85">
<path d="M69.1929 33.3334H111.479V117.745H69.1929V33.3334Z" fill="white"/>
</mask>
<g mask="url(#mask11_400_976)">
<path d="M109.531 106.385C108.219 105.068 106.505 104.412 104.661 104.474L92.9375 91.1042L97.875 86.099C98.7969 85.1771 99.3229 83.9271 99.3229 82.5417C99.3229 81.224 98.7969 79.974 97.8073 79.0521L94.5156 75.823C93.9896 75.2969 93.1979 75.2969 92.6719 75.823L85.9531 82.7396L44.9219 39.9271C44.7917 39.7969 44.6563 39.6667 44.4584 39.599L28.9167 33.474C28.4531 33.2761 27.8646 33.3438 27.5313 33.7344C27.1354 34.1303 27.0052 34.6615 27.2031 35.1876L33.3959 50.7969C33.4584 50.9948 33.5938 51.1251 33.724 51.2553L76.4063 92.4219L70.8698 98.0209C70.6094 98.2813 70.474 98.6146 70.474 98.9428C70.474 99.2709 70.6094 99.599 70.8698 99.8646L74.099 103.094C75.0209 104.016 76.2709 104.542 77.5886 104.542C78.9063 104.542 80.224 104.016 81.1459 103.094L84.375 99.8646L98.4011 112.182C98.599 113.563 99.2604 114.818 100.245 115.802C101.5 117.057 103.146 117.714 104.859 117.714C106.635 117.714 108.281 117.057 109.531 115.802C110.786 114.552 111.443 112.906 111.443 111.125C111.443 109.281 110.786 107.635 109.531 106.385ZM35.6979 49.4792L30.7604 36.9636L43.2084 41.9063L84.1094 84.5834L82.0677 86.6251L51.0469 55.474C50.5209 54.9428 49.7292 54.9428 49.2031 55.474C48.6771 56.0001 48.6771 56.7917 49.2031 57.3178L80.224 88.4688L78.25 90.5105L35.6979 49.4792ZM79.3021 101.115C78.3802 102.037 76.8646 102.037 75.9427 101.115L73.6354 98.8751L93.6615 78.6563L95.9636 80.9636C96.4271 81.4219 96.6875 82.0157 96.6875 82.6094C96.6875 83.2032 96.4271 83.7917 96.0313 84.2553L79.3021 101.115ZM107.688 113.828C106.964 114.552 105.979 115.016 104.922 115.016C103.87 115.016 102.88 114.62 102.156 113.896C101.5 113.234 101.104 112.313 101.036 111.391L100.969 110.865L86.2188 97.8907L91.0261 93.0157L103.542 107.307L104.266 107.177C105.516 106.979 106.766 107.375 107.625 108.297C108.349 109.021 108.807 110.005 108.807 111.063C108.807 112.115 108.411 113.104 107.688 113.828Z" fill="white"/>
</g>
<mask id="mask12_400_976" style="mask-type:luminance" maskUnits="userSpaceOnUse" x="69" y="45" width="2" height="5">
<path d="M69.1929 45.3334H70.6668V49.3334H69.1929V45.3334Z" fill="white"/>
</mask>
<g mask="url(#mask12_400_976)">
<path d="M70.474 47.8333C70.474 48.1979 70.349 48.5052 70.0885 48.7656C69.8333 49.0208 69.5208 49.151 69.1615 49.151C68.7969 49.151 68.4844 49.0208 68.2292 48.7656C67.9687 48.5052 67.8438 48.1979 67.8438 47.8333C67.8438 47.4687 67.9687 47.1563 68.2292 46.901C68.4844 46.6406 68.7969 46.5156 69.1615 46.5156C69.5208 46.5156 69.8333 46.6406 70.0885 46.901C70.349 47.1563 70.474 47.4687 70.474 47.8333Z" fill="white"/>
</g>
<mask id="mask13_400_976" style="mask-type:luminance" maskUnits="userSpaceOnUse" x="70" y="33" width="42" height="42">
<path d="M70.6665 33.2344H111.479V74.6667H70.6665V33.2344Z" fill="white"/>
</mask>
<g mask="url(#mask13_400_976)">
<path d="M72.9113 65.3542L95.3748 41.9063L107.755 36.9636L102.818 49.4792L79.4321 72.1354L81.2759 74.0469L104.859 51.1927C104.989 51.0573 105.12 50.9271 105.187 50.7292L111.38 35.1198C111.573 34.6615 111.443 34.0677 111.114 33.6719C110.719 33.2761 110.193 33.2084 109.729 33.4063L94.255 39.5313C94.0571 39.599 93.9217 39.7292 93.7915 39.8646L71.1353 63.4427L72.9113 65.3542Z" fill="white"/>
</g>
<path d="M89.3804 55.474C88.8543 54.9427 88.0627 54.9427 87.5366 55.474L75.2866 67.7865L77.1304 69.698L89.4429 57.3177C89.9064 56.7917 89.9064 56 89.3804 55.474Z" fill="white"/>
</svg>
